<mxfile host="app.diagrams.net" modified="2021-12-25T10:21:53.627Z" agent="5.0 (Windows NT 10.0; Win64; x64) AppleWebKit/537.36 (KHTML, like Gecko) Chrome/96.0.4664.110 Safari/537.36 Edg/96.0.1054.62" etag="WtNml6hgKlCzN2YQGaVE" version="16.0.3" type="github">
  <diagram id="t6OFkPU0lkqDr8Xcx4Ip" name="Page-1">
    <mxGraphModel dx="782" dy="468" grid="1" gridSize="10" guides="1" tooltips="1" connect="1" arrows="1" fold="1" page="1" pageScale="1" pageWidth="827" pageHeight="1169" math="0" shadow="0">
      <root>
        <mxCell id="0" />
        <mxCell id="1" parent="0" />
        <mxCell id="R9oaI227u_qJ4COozVJn-1" value="跟随者 A" style="ellipse;whiteSpace=wrap;html=1;aspect=fixed;fontSize=14;" vertex="1" parent="1">
          <mxGeometry x="340" y="80" width="80" height="80" as="geometry" />
        </mxCell>
        <mxCell id="R9oaI227u_qJ4COozVJn-2" value="任期编号 0&lt;br&gt;超时时间 50 ms" style="rounded=0;whiteSpace=wrap;html=1;fontSize=14;align=left;dashed=1;fillColor=#fff2cc;strokeColor=#d6b656;" vertex="1" parent="1">
          <mxGeometry x="325" y="20" width="110" height="40" as="geometry" />
        </mxCell>
        <mxCell id="R9oaI227u_qJ4COozVJn-3" value="跟随者 B" style="ellipse;whiteSpace=wrap;html=1;aspect=fixed;fontSize=14;" vertex="1" parent="1">
          <mxGeometry x="105" y="80" width="80" height="80" as="geometry" />
        </mxCell>
        <mxCell id="R9oaI227u_qJ4COozVJn-4" value="任期编号 0&lt;br&gt;超时时间 100 ms" style="rounded=0;whiteSpace=wrap;html=1;fontSize=14;align=left;dashed=1;fillColor=#fff2cc;strokeColor=#d6b656;" vertex="1" parent="1">
          <mxGeometry x="90" y="20" width="110" height="40" as="geometry" />
        </mxCell>
        <mxCell id="R9oaI227u_qJ4COozVJn-5" value="跟随者 C" style="ellipse;whiteSpace=wrap;html=1;aspect=fixed;fontSize=14;" vertex="1" parent="1">
          <mxGeometry x="565" y="80" width="80" height="80" as="geometry" />
        </mxCell>
        <mxCell id="R9oaI227u_qJ4COozVJn-6" value="任期编号 0&lt;br&gt;超时时间 150 ms" style="rounded=0;whiteSpace=wrap;html=1;fontSize=14;align=left;dashed=1;fillColor=#fff2cc;strokeColor=#d6b656;" vertex="1" parent="1">
          <mxGeometry x="550" y="20" width="110" height="40" as="geometry" />
        </mxCell>
        <mxCell id="R9oaI227u_qJ4COozVJn-7" value="1" style="ellipse;whiteSpace=wrap;html=1;aspect=fixed;dashed=1;fontSize=15;fillColor=#000000;fontColor=#FFFFFF;" vertex="1" parent="1">
          <mxGeometry x="20" y="102.5" width="35" height="35" as="geometry" />
        </mxCell>
        <mxCell id="R9oaI227u_qJ4COozVJn-8" value="候选人 A" style="ellipse;whiteSpace=wrap;html=1;aspect=fixed;fontSize=14;fillColor=#60a917;fontColor=#ffffff;strokeColor=#2D7600;" vertex="1" parent="1">
          <mxGeometry x="340" y="250" width="80" height="80" as="geometry" />
        </mxCell>
        <mxCell id="R9oaI227u_qJ4COozVJn-9" value="任期编号 1&lt;br&gt;选票 1" style="rounded=0;whiteSpace=wrap;html=1;fontSize=14;align=left;dashed=1;fillColor=#dae8fc;strokeColor=#6c8ebf;" vertex="1" parent="1">
          <mxGeometry x="325" y="190" width="110" height="40" as="geometry" />
        </mxCell>
        <mxCell id="R9oaI227u_qJ4COozVJn-10" value="跟随者 B" style="ellipse;whiteSpace=wrap;html=1;aspect=fixed;fontSize=14;" vertex="1" parent="1">
          <mxGeometry x="105" y="250" width="80" height="80" as="geometry" />
        </mxCell>
        <mxCell id="R9oaI227u_qJ4COozVJn-11" value="任期编号 0" style="rounded=0;whiteSpace=wrap;html=1;fontSize=14;align=left;dashed=1;fillColor=#dae8fc;strokeColor=#6c8ebf;" vertex="1" parent="1">
          <mxGeometry x="90" y="190" width="110" height="40" as="geometry" />
        </mxCell>
        <mxCell id="R9oaI227u_qJ4COozVJn-12" value="跟随者 C" style="ellipse;whiteSpace=wrap;html=1;aspect=fixed;fontSize=14;" vertex="1" parent="1">
          <mxGeometry x="565" y="250" width="80" height="80" as="geometry" />
        </mxCell>
        <mxCell id="R9oaI227u_qJ4COozVJn-13" value="任期编号 0" style="rounded=0;whiteSpace=wrap;html=1;fontSize=14;align=left;dashed=1;fillColor=#dae8fc;strokeColor=#6c8ebf;" vertex="1" parent="1">
          <mxGeometry x="550" y="190" width="110" height="40" as="geometry" />
        </mxCell>
        <mxCell id="R9oaI227u_qJ4COozVJn-14" value="2" style="ellipse;whiteSpace=wrap;html=1;aspect=fixed;dashed=1;fontSize=15;fillColor=#000000;fontColor=#FFFFFF;" vertex="1" parent="1">
          <mxGeometry x="20" y="272.5" width="35" height="35" as="geometry" />
        </mxCell>
        <mxCell id="R9oaI227u_qJ4COozVJn-15" value="" style="endArrow=classic;html=1;rounded=0;fontSize=15;fontColor=#FFFFFF;exitX=0;exitY=0.5;exitDx=0;exitDy=0;entryX=1;entryY=0.5;entryDx=0;entryDy=0;" edge="1" parent="1" source="R9oaI227u_qJ4COozVJn-8" target="R9oaI227u_qJ4COozVJn-10">
          <mxGeometry width="50" height="50" relative="1" as="geometry">
            <mxPoint x="230" y="300" as="sourcePoint" />
            <mxPoint x="280" y="250" as="targetPoint" />
          </mxGeometry>
        </mxCell>
        <mxCell id="R9oaI227u_qJ4COozVJn-16" value="请求投票" style="edgeLabel;html=1;align=center;verticalAlign=middle;resizable=0;points=[];fontSize=15;fontColor=#000000;" vertex="1" connectable="0" parent="R9oaI227u_qJ4COozVJn-15">
          <mxGeometry x="0.3045" y="2" relative="1" as="geometry">
            <mxPoint x="24" y="-4" as="offset" />
          </mxGeometry>
        </mxCell>
        <mxCell id="R9oaI227u_qJ4COozVJn-17" value="" style="endArrow=classic;html=1;rounded=0;fontSize=15;fontColor=#FFFFFF;exitX=1;exitY=0.5;exitDx=0;exitDy=0;entryX=0;entryY=0.5;entryDx=0;entryDy=0;" edge="1" parent="1" source="R9oaI227u_qJ4COozVJn-8" target="R9oaI227u_qJ4COozVJn-12">
          <mxGeometry width="50" height="50" relative="1" as="geometry">
            <mxPoint x="592.4357287525381" y="369.99572875253807" as="sourcePoint" />
            <mxPoint x="414.00427124746193" y="369.99572875253807" as="targetPoint" />
          </mxGeometry>
        </mxCell>
        <mxCell id="R9oaI227u_qJ4COozVJn-18" value="请求投票" style="edgeLabel;html=1;align=center;verticalAlign=middle;resizable=0;points=[];fontSize=15;fontColor=#000000;" vertex="1" connectable="0" parent="R9oaI227u_qJ4COozVJn-17">
          <mxGeometry x="0.3045" y="2" relative="1" as="geometry">
            <mxPoint x="-28" as="offset" />
          </mxGeometry>
        </mxCell>
        <mxCell id="R9oaI227u_qJ4COozVJn-19" value="候选人 A" style="ellipse;whiteSpace=wrap;html=1;aspect=fixed;fontSize=14;fillColor=#60a917;fontColor=#ffffff;strokeColor=#2D7600;" vertex="1" parent="1">
          <mxGeometry x="340" y="420" width="80" height="80" as="geometry" />
        </mxCell>
        <mxCell id="R9oaI227u_qJ4COozVJn-20" value="任期编号 1&lt;br&gt;选票 1" style="rounded=0;whiteSpace=wrap;html=1;fontSize=14;align=left;dashed=1;fillColor=#f5f5f5;strokeColor=#666666;fontColor=#333333;" vertex="1" parent="1">
          <mxGeometry x="325" y="360" width="110" height="40" as="geometry" />
        </mxCell>
        <mxCell id="R9oaI227u_qJ4COozVJn-21" value="跟随者 B" style="ellipse;whiteSpace=wrap;html=1;aspect=fixed;fontSize=14;" vertex="1" parent="1">
          <mxGeometry x="105" y="420" width="80" height="80" as="geometry" />
        </mxCell>
        <mxCell id="R9oaI227u_qJ4COozVJn-22" value="任期编号 1" style="rounded=0;whiteSpace=wrap;html=1;fontSize=14;align=left;dashed=1;fillColor=#f5f5f5;strokeColor=#666666;fontColor=#333333;" vertex="1" parent="1">
          <mxGeometry x="90" y="360" width="110" height="40" as="geometry" />
        </mxCell>
        <mxCell id="R9oaI227u_qJ4COozVJn-23" value="跟随者 C" style="ellipse;whiteSpace=wrap;html=1;aspect=fixed;fontSize=14;" vertex="1" parent="1">
          <mxGeometry x="565" y="420" width="80" height="80" as="geometry" />
        </mxCell>
        <mxCell id="R9oaI227u_qJ4COozVJn-24" value="任期编号 1" style="rounded=0;whiteSpace=wrap;html=1;fontSize=14;align=left;dashed=1;fillColor=#f5f5f5;strokeColor=#666666;fontColor=#333333;" vertex="1" parent="1">
          <mxGeometry x="550" y="360" width="110" height="40" as="geometry" />
        </mxCell>
        <mxCell id="R9oaI227u_qJ4COozVJn-25" value="3" style="ellipse;whiteSpace=wrap;html=1;aspect=fixed;dashed=1;fontSize=15;fillColor=#000000;fontColor=#FFFFFF;" vertex="1" parent="1">
          <mxGeometry x="20" y="442.5" width="35" height="35" as="geometry" />
        </mxCell>
        <mxCell id="R9oaI227u_qJ4COozVJn-30" value="领导者 A" style="ellipse;whiteSpace=wrap;html=1;aspect=fixed;fontSize=14;fillColor=#a20025;fontColor=#ffffff;strokeColor=#6F0000;" vertex="1" parent="1">
          <mxGeometry x="340" y="590" width="80" height="80" as="geometry" />
        </mxCell>
        <mxCell id="R9oaI227u_qJ4COozVJn-31" value="任期编号 1&lt;br&gt;选票 3" style="rounded=0;whiteSpace=wrap;html=1;fontSize=14;align=left;dashed=1;fillColor=#e1d5e7;strokeColor=#9673a6;" vertex="1" parent="1">
          <mxGeometry x="325" y="530" width="110" height="40" as="geometry" />
        </mxCell>
        <mxCell id="R9oaI227u_qJ4COozVJn-32" value="跟随者 B" style="ellipse;whiteSpace=wrap;html=1;aspect=fixed;fontSize=14;" vertex="1" parent="1">
          <mxGeometry x="105" y="590" width="80" height="80" as="geometry" />
        </mxCell>
        <mxCell id="R9oaI227u_qJ4COozVJn-33" value="任期编号 1" style="rounded=0;whiteSpace=wrap;html=1;fontSize=14;align=left;dashed=1;fillColor=#e1d5e7;strokeColor=#9673a6;" vertex="1" parent="1">
          <mxGeometry x="90" y="530" width="110" height="40" as="geometry" />
        </mxCell>
        <mxCell id="R9oaI227u_qJ4COozVJn-34" value="跟随者 C" style="ellipse;whiteSpace=wrap;html=1;aspect=fixed;fontSize=14;" vertex="1" parent="1">
          <mxGeometry x="565" y="590" width="80" height="80" as="geometry" />
        </mxCell>
        <mxCell id="R9oaI227u_qJ4COozVJn-35" value="任期编号 1" style="rounded=0;whiteSpace=wrap;html=1;fontSize=14;align=left;dashed=1;fillColor=#e1d5e7;strokeColor=#9673a6;" vertex="1" parent="1">
          <mxGeometry x="550" y="530" width="110" height="40" as="geometry" />
        </mxCell>
        <mxCell id="R9oaI227u_qJ4COozVJn-36" value="4" style="ellipse;whiteSpace=wrap;html=1;aspect=fixed;dashed=1;fontSize=15;fillColor=#000000;fontColor=#FFFFFF;" vertex="1" parent="1">
          <mxGeometry x="20" y="612.5" width="35" height="35" as="geometry" />
        </mxCell>
        <mxCell id="R9oaI227u_qJ4COozVJn-41" value="" style="endArrow=classic;html=1;rounded=0;fontSize=15;fontColor=#000000;exitX=1;exitY=0.5;exitDx=0;exitDy=0;entryX=0;entryY=0.5;entryDx=0;entryDy=0;" edge="1" parent="1" source="R9oaI227u_qJ4COozVJn-21" target="R9oaI227u_qJ4COozVJn-19">
          <mxGeometry width="50" height="50" relative="1" as="geometry">
            <mxPoint x="230" y="480" as="sourcePoint" />
            <mxPoint x="280" y="430" as="targetPoint" />
          </mxGeometry>
        </mxCell>
        <mxCell id="R9oaI227u_qJ4COozVJn-42" value="投票" style="edgeLabel;html=1;align=center;verticalAlign=middle;resizable=0;points=[];fontSize=15;fontColor=#000000;" vertex="1" connectable="0" parent="R9oaI227u_qJ4COozVJn-41">
          <mxGeometry x="0.226" y="-1" relative="1" as="geometry">
            <mxPoint x="-22" as="offset" />
          </mxGeometry>
        </mxCell>
        <mxCell id="R9oaI227u_qJ4COozVJn-43" value="" style="endArrow=classic;html=1;rounded=0;fontSize=15;fontColor=#000000;exitX=0;exitY=0.5;exitDx=0;exitDy=0;entryX=1;entryY=0.5;entryDx=0;entryDy=0;" edge="1" parent="1" source="R9oaI227u_qJ4COozVJn-23" target="R9oaI227u_qJ4COozVJn-19">
          <mxGeometry width="50" height="50" relative="1" as="geometry">
            <mxPoint x="450" y="480" as="sourcePoint" />
            <mxPoint x="500" y="430" as="targetPoint" />
            <Array as="points" />
          </mxGeometry>
        </mxCell>
        <mxCell id="R9oaI227u_qJ4COozVJn-44" value="投票" style="edgeLabel;html=1;align=center;verticalAlign=middle;resizable=0;points=[];fontSize=15;fontColor=#000000;" vertex="1" connectable="0" parent="R9oaI227u_qJ4COozVJn-43">
          <mxGeometry x="-0.3344" y="1" relative="1" as="geometry">
            <mxPoint x="-21" as="offset" />
          </mxGeometry>
        </mxCell>
        <mxCell id="R9oaI227u_qJ4COozVJn-45" value="领导者 A" style="ellipse;whiteSpace=wrap;html=1;aspect=fixed;fontSize=14;fillColor=#a20025;fontColor=#ffffff;strokeColor=#6F0000;" vertex="1" parent="1">
          <mxGeometry x="340" y="770" width="80" height="80" as="geometry" />
        </mxCell>
        <mxCell id="R9oaI227u_qJ4COozVJn-46" value="任期编号 1" style="rounded=0;whiteSpace=wrap;html=1;fontSize=14;align=left;dashed=1;fillColor=#f8cecc;strokeColor=#b85450;" vertex="1" parent="1">
          <mxGeometry x="325" y="710" width="110" height="40" as="geometry" />
        </mxCell>
        <mxCell id="R9oaI227u_qJ4COozVJn-47" value="跟随者 B" style="ellipse;whiteSpace=wrap;html=1;aspect=fixed;fontSize=14;" vertex="1" parent="1">
          <mxGeometry x="105" y="770" width="80" height="80" as="geometry" />
        </mxCell>
        <mxCell id="R9oaI227u_qJ4COozVJn-48" value="任期编号 1&lt;br&gt;超时时间 200ms" style="rounded=0;whiteSpace=wrap;html=1;fontSize=14;align=left;dashed=1;fillColor=#f8cecc;strokeColor=#b85450;" vertex="1" parent="1">
          <mxGeometry x="90" y="710" width="110" height="40" as="geometry" />
        </mxCell>
        <mxCell id="R9oaI227u_qJ4COozVJn-49" value="跟随者 C" style="ellipse;whiteSpace=wrap;html=1;aspect=fixed;fontSize=14;" vertex="1" parent="1">
          <mxGeometry x="565" y="770" width="80" height="80" as="geometry" />
        </mxCell>
        <mxCell id="R9oaI227u_qJ4COozVJn-50" value="任期编号 1&lt;br&gt;超时时间 300ms" style="rounded=0;whiteSpace=wrap;html=1;fontSize=14;align=left;dashed=1;fillColor=#f8cecc;strokeColor=#b85450;" vertex="1" parent="1">
          <mxGeometry x="550" y="710" width="110" height="40" as="geometry" />
        </mxCell>
        <mxCell id="R9oaI227u_qJ4COozVJn-51" value="5" style="ellipse;whiteSpace=wrap;html=1;aspect=fixed;dashed=1;fontSize=15;fillColor=#000000;fontColor=#FFFFFF;" vertex="1" parent="1">
          <mxGeometry x="20" y="792.5" width="35" height="35" as="geometry" />
        </mxCell>
        <mxCell id="R9oaI227u_qJ4COozVJn-52" value="" style="endArrow=classic;html=1;rounded=0;fontSize=15;fontColor=#FFFFFF;entryX=1;entryY=0.5;entryDx=0;entryDy=0;exitX=0;exitY=0.5;exitDx=0;exitDy=0;" edge="1" parent="1" source="R9oaI227u_qJ4COozVJn-45" target="R9oaI227u_qJ4COozVJn-47">
          <mxGeometry width="50" height="50" relative="1" as="geometry">
            <mxPoint x="340" y="790" as="sourcePoint" />
            <mxPoint x="161.5642712474619" y="768.9957287525381" as="targetPoint" />
          </mxGeometry>
        </mxCell>
        <mxCell id="R9oaI227u_qJ4COozVJn-53" value="心跳消息" style="edgeLabel;html=1;align=center;verticalAlign=middle;resizable=0;points=[];fontSize=15;fontColor=#000000;" vertex="1" connectable="0" parent="R9oaI227u_qJ4COozVJn-52">
          <mxGeometry x="0.3045" y="2" relative="1" as="geometry">
            <mxPoint x="24" y="-4" as="offset" />
          </mxGeometry>
        </mxCell>
        <mxCell id="R9oaI227u_qJ4COozVJn-58" value="" style="endArrow=classic;html=1;rounded=0;fontSize=15;fontColor=#000000;exitX=1;exitY=0.5;exitDx=0;exitDy=0;entryX=0;entryY=0.5;entryDx=0;entryDy=0;" edge="1" parent="1" source="R9oaI227u_qJ4COozVJn-45" target="R9oaI227u_qJ4COozVJn-49">
          <mxGeometry width="50" height="50" relative="1" as="geometry">
            <mxPoint x="490" y="900" as="sourcePoint" />
            <mxPoint x="540" y="850" as="targetPoint" />
          </mxGeometry>
        </mxCell>
        <mxCell id="R9oaI227u_qJ4COozVJn-59" value="心跳消息" style="edgeLabel;html=1;align=center;verticalAlign=middle;resizable=0;points=[];fontSize=15;fontColor=#000000;" vertex="1" connectable="0" parent="R9oaI227u_qJ4COozVJn-58">
          <mxGeometry x="0.1126" y="-1" relative="1" as="geometry">
            <mxPoint as="offset" />
          </mxGeometry>
        </mxCell>
      </root>
    </mxGraphModel>
  </diagram>
</mxfile>
